HIERARCHY
ROOT SpineBase
{
  OFFSET 0.000000 0.000000 0.000000
  CHANNELS 6 Xposition Yposition Zposition Zrotation Xrotation Yrotation
  JOINT SpineMid
  {
    OFFSET 0.000000 26.961326 0.000000
    CHANNELS 3 Zrotation Xrotation Yrotation
    JOINT SpineShoulder
    {
      OFFSET 0.002395 20.138187 -0.571543
      CHANNELS 3 Zrotation Xrotation Yrotation
      JOINT Neck
      {
        OFFSET -0.004945 6.692479 -0.462310
        CHANNELS 3 Zrotation Xrotation Yrotation
        JOINT Head
        {
          OFFSET -2.439898 11.877293 1.280388
          CHANNELS 3 Zrotation Xrotation Yrotation
          End Site
          {
            OFFSET 0 0 0
          }
        }
      }
      JOINT ShoulderLeft
      {
        OFFSET -13.444931 -3.427814 4.007109
        CHANNELS 3 Zrotation Xrotation Yrotation
        JOINT ElbowLeft
        {
          OFFSET -1.075149 -23.351285 0.210624
          CHANNELS 3 Zrotation Xrotation Yrotation
          JOINT WristLeft
          {
            OFFSET -1.162910 -19.279584 -5.115071
            CHANNELS 3 Zrotation Xrotation Yrotation
            JOINT HandLeft
            {
              OFFSET 0.474752 -5.634311 -1.257022
              CHANNELS 3 Zrotation Xrotation Yrotation
              JOINT HandTipLeft
              {
                OFFSET 0.280129 -5.392349 -2.103549
                CHANNELS 3 Zrotation Xrotation Yrotation
                End Site
                {
                  OFFSET 0 0 0
                }
              }
              JOINT ThumbLeft
              {
                OFFSET 3.307800 1.508201 -1.767205
                CHANNELS 3 Zrotation Xrotation Yrotation
                End Site
                {
                  OFFSET 0 0 0
                }
              }
            }
          }
        }
      }
      JOINT ShoulderRight
      {
        OFFSET 12.456807 -2.577990 -6.045219
        CHANNELS 3 Zrotation Xrotation Yrotation
        JOINT ElbowRight
        {
          OFFSET 4.218754 -22.736395 -3.116694
          CHANNELS 3 Zrotation Xrotation Yrotation
          JOINT WristRight
          {
            OFFSET -0.122723 -19.636611 -7.007121
            CHANNELS 3 Zrotation Xrotation Yrotation
            JOINT HandRight
            {
              OFFSET -1.388029 -5.005123 -0.662583
              CHANNELS 3 Zrotation Xrotation Yrotation
              JOINT HandTipRight
              {
                OFFSET -0.194698 -5.113761 -1.520064
                CHANNELS 3 Zrotation Xrotation Yrotation
                End Site
                {
                  OFFSET 0 0 0
                }
              }
              JOINT ThumbRight
              {
                OFFSET -2.345664 2.289289 0.570880
                CHANNELS 3 Zrotation Xrotation Yrotation
                End Site
                {
                  OFFSET 0 0 0
                }
              }
            }
          }
        }
      }
    }
  }
  JOINT HipLeft
  {
    OFFSET -5.836761 0.365608 -1.441841
    CHANNELS 3 Zrotation Xrotation Yrotation
    JOINT KneeLeft
    {
      OFFSET 5.287916 -31.071849 1.201898
      CHANNELS 3 Zrotation Xrotation Yrotation
      JOINT AnkleLeft
      {
        OFFSET 4.592847 -31.216141 4.958244
        CHANNELS 3 Zrotation Xrotation Yrotation
        JOINT FootLeft
        {
          OFFSET -0.499575 -2.564935 -8.594371
          CHANNELS 3 Zrotation Xrotation Yrotation
          End Site
          {
            OFFSET 0 0 0
          }
        }
      }
    }
  }
  JOINT HipRight
  {
    OFFSET 5.371804 1.397135 -4.503693
    CHANNELS 3 Zrotation Xrotation Yrotation
    JOINT KneeRight
    {
      OFFSET 6.123994 -26.530709 -1.869700
      CHANNELS 3 Zrotation Xrotation Yrotation
      JOINT AnkleRight
      {
        OFFSET 4.647162 -35.113060 4.194691
        CHANNELS 3 Zrotation Xrotation Yrotation
        JOINT FootRight
        {
          OFFSET -5.705243 -5.583513 1.372541
          CHANNELS 3 Zrotation Xrotation Yrotation
          End Site
          {
            OFFSET 0 0 0
          }
        }
      }
    }
  }
}
MOTION
Frames: 10
Frame Time: 0.033333
25.707545 68.148458 361.719628 -0.000000 0.000000 15.278765 -0.000000 0.000000 -15.278765 -0.000000 0.000000 0.000000 -0.000000 0.000000 0.000000 0.000000 0.000000 0.000000 -0.000000 0.000000 0.000000 -0.000000 0.000000 0.000000 -0.000000 0.000000 0.000000 -0.000000 0.000000 0.000000 0.000000 0.000000 0.000000 0.000000 0.000000 0.000000 -0.000000 0.000000 0.000000 -0.000000 0.000000 0.000000 -0.000000 0.000000 0.000000 -0.000000 0.000000 0.000000 0.000000 0.000000 0.000000 0.000000 0.000000 0.000000 -0.000000 0.000000 -15.278765 -0.000000 0.000000 0.000000 -0.000000 0.000000 0.000000 0.000000 0.000000 0.000000 -0.000000 0.000000 -15.278765 -0.000000 0.000000 0.000000 -0.000000 0.000000 0.000000 0.000000 0.000000 0.000000
25.776938 67.997794 361.786251 0.099755 0.057914 15.325575 -0.111514 -0.029489 -15.325654 -0.000000 0.000000 0.000000 -0.000000 0.000000 0.000000 0.000000 0.000000 0.000000 -0.000000 0.000000 0.000000 -0.000000 0.000000 0.000000 1.927978 0.510048 -0.394826 -3.429764 -3.173735 0.789559 0.000000 0.000000 0.000000 0.000000 0.000000 0.000000 -0.000000 0.000000 0.000000 -0.000000 0.000000 0.000000 0.774393 0.195494 -0.158313 -0.773855 -0.197615 0.155657 0.000000 0.000000 0.000000 0.000000 0.000000 0.000000 -0.111514 -0.029489 -15.325654 -0.000000 0.000000 0.000000 0.997113 -3.967976 -2.871011 0.000000 0.000000 0.000000 -0.643498 -1.554941 -15.697787 -0.621265 2.327008 0.397865 2.785340 0.573345 -0.832404 0.000000 0.000000 0.000000
25.834233 67.876310 361.849068 0.180904 0.107742 15.366779 -0.202987 -0.055950 -15.367049 -0.000000 0.000000 0.000000 -0.000000 0.000000 0.000000 0.000000 0.000000 0.000000 -0.000000 0.000000 0.000000 -0.000000 0.000000 0.000000 3.496731 0.946815 -0.726271 -6.145216 -5.593801 1.346003 0.000000 0.000000 0.000000 0.000000 0.000000 0.000000 -0.000000 0.000000 0.000000 -0.000000 0.000000 0.000000 1.383036 0.427260 -0.307619 -1.380762 -0.434554 0.297226 0.000000 0.000000 0.000000 0.000000 0.000000 0.000000 -0.202987 -0.055950 -15.367049 -0.000000 0.000000 0.000000 1.658367 -7.310259 -5.136666 0.000000 0.000000 0.000000 -1.055029 -2.541692 -15.981551 -1.211524 3.917874 0.683237 5.361458 1.057299 -1.476977 0.000000 0.000000 0.000000
25.879428 67.784004 361.908082 0.243705 0.149619 15.403547 -0.274692 -0.079511 -15.404055 -0.000000 0.000000 0.000000 -0.000000 0.000000 0.000000 0.000000 0.000000 0.000000 -0.000000 0.000000 0.000000 -0.000000 0.000000 0.000000 4.772647 1.333335 -1.002465 -8.244231 -7.264873 1.736871 0.000000 0.000000 0.000000 0.000000 0.000000 0.000000 -0.000000 0.000000 0.000000 -0.000000 0.000000 0.000000 1.826651 0.694911 -0.447245 -1.655118 -1.769937 0.421884 0.000000 0.000000 0.000000 0.000000 0.000000 0.000000 -0.274692 -0.079511 -15.404055 -0.000000 0.000000 0.000000 2.041447 -9.810741 -6.692771 0.000000 0.000000 0.000000 -1.275483 -3.094364 -16.154362 -1.691554 4.857617 0.858884 7.596061 1.478747 -1.913087 0.000000 0.000000 0.000000
25.912525 67.720878 361.963290 0.288356 0.183655 15.436824 -0.326839 -0.100274 -15.437572 -0.000000 0.000000 0.000000 -0.756200 -0.616192 -0.049224 0.000000 0.000000 0.000000 -0.000000 0.000000 0.000000 -0.000000 0.000000 0.000000 5.801278 1.687637 -1.229349 -9.793384 -8.202832 2.008214 0.000000 0.000000 0.000000 0.000000 0.000000 0.000000 -0.000000 0.000000 0.000000 -0.000000 0.000000 0.000000 2.106923 0.997833 -0.576294 -1.853754 -2.506613 0.535387 0.000000 0.000000 0.000000 0.000000 0.000000 0.000000 -0.326839 -0.100274 -15.437572 -0.000000 0.000000 0.000000 2.208801 -11.336557 -7.474185 0.000000 0.000000 0.000000 -1.324087 -3.279882 -16.229622 -2.003588 5.173829 0.918430 9.378432 1.862006 -2.134300 0.000000 0.000000 0.000000
25.933522 67.686931 362.014694 0.314995 0.209934 15.467378 -0.359575 -0.118321 -15.468327 -0.000000 0.000000 0.000000 -0.872749 -0.733589 -0.062343 0.000000 0.000000 0.000000 -0.000000 0.000000 0.000000 -0.000000 0.000000 0.000000 6.611722 2.025077 -1.410556 -10.835078 -8.425711 2.188050 0.000000 0.000000 0.000000 0.000000 0.000000 0.000000 -0.000000 0.000000 0.000000 -0.000000 0.000000 0.000000 2.226349 1.335180 -0.693659 -1.878818 -3.316275 0.637507 0.000000 0.000000 0.000000 0.000000 0.000000 0.000000 -0.359575 -0.118321 -15.468327 -0.000000 0.000000 0.000000 2.203798 -11.826999 -7.452816 0.000000 0.000000 0.000000 -1.203935 -3.119061 -16.212382 -2.121277 4.869259 0.855746 10.636407 2.217826 -2.143046 0.000000 0.000000 0.000000
25.940268 67.704072 362.040783 0.314456 0.252271 15.549998 -0.370575 -0.158734 -15.551203 -0.000000 0.000000 0.000000 -0.918970 -0.813351 -0.074721 0.000000 0.000000 0.000000 -0.000000 0.000000 0.000000 -0.000000 0.000000 0.000000 7.259468 2.482313 -1.554148 -10.492896 -5.492804 2.168301 0.000000 0.000000 0.000000 0.000000 0.000000 0.000000 -0.000000 0.000000 0.000000 -0.715276 -0.374154 0.255532 3.007887 2.761298 -1.293333 -2.072162 -5.271185 1.006829 0.000000 0.000000 0.000000 0.000000 0.000000 0.000000 -0.370575 -0.158734 -15.551203 -0.000000 0.000000 0.000000 3.510474 -11.289764 -13.831903 0.000000 0.000000 0.000000 -0.551187 -1.853218 -15.962339 -1.791713 2.562273 0.407829 10.904920 3.323298 -2.329171 0.000000 0.000000 0.000000
25.929090 67.743849 362.085975 0.280106 0.245257 15.532641 -0.335554 -0.161288 -15.533713 -0.000000 0.000000 0.000000 -0.909097 -0.877094 -0.089355 0.000000 0.000000 0.000000 -0.000000 0.000000 0.000000 -0.000000 0.000000 0.000000 7.648080 3.476474 -1.627955 -10.846563 -4.832605 2.145142 0.000000 0.000000 0.000000 0.000000 0.000000 0.000000 -0.000000 0.000000 0.000000 -0.000000 0.000000 0.000000 1.738290 2.373116 -0.925687 -1.331562 -5.265761 0.891423 0.000000 0.000000 0.000000 0.000000 0.000000 0.000000 -0.335554 -0.161288 -15.533713 -0.000000 0.000000 0.000000 3.063784 -16.321622 -12.834261 0.000000 0.000000 0.000000 -0.335554 -0.161288 -15.533713 -0.977022 0.220239 -0.085810 9.113033 1.884631 -0.182147 0.000000 0.000000 0.000000
25.909046 67.796915 362.137977 0.255983 0.235142 15.517514 -0.309561 -0.158085 -15.518466 -0.000000 0.000000 0.000000 -0.955723 -0.971069 -0.104831 0.000000 0.000000 0.000000 -0.000000 0.000000 0.000000 -0.000000 0.000000 0.000000 7.636354 3.074558 -1.633245 -9.217101 -5.170135 1.657526 0.000000 0.000000 0.000000 0.000000 0.000000 0.000000 -0.000000 0.000000 0.000000 -0.000000 0.000000 0.000000 0.840570 2.771445 -0.899274 -0.344342 -6.441667 0.918030 0.000000 0.000000 0.000000 0.000000 0.000000 0.000000 -0.309561 -0.158085 -15.518466 -0.000000 0.000000 0.000000 2.133465 -16.503338 -7.050149 0.000000 0.000000 0.000000 0.722034 0.609076 -15.344160 -0.791943 -1.012711 -0.185365 9.297890 1.902817 0.209690 0.000000 0.000000 0.000000
25.894717 67.859141 362.197418 0.240792 0.210045 15.434258 -0.288009 -0.138385 -15.435047 -0.000000 0.000000 0.000000 -1.007652 -1.058227 -0.118402 0.000000 0.000000 0.000000 -0.000000 0.000000 0.000000 -0.000000 0.000000 0.000000 7.852830 3.247351 -1.683467 -8.531010 -4.667088 1.417773 0.000000 0.000000 0.000000 0.000000 0.000000 0.000000 -0.814149 0.193839 0.149111 0.813646 -0.195937 -0.146343 0.444719 2.355590 -0.720169 0.942298 -6.908014 0.598829 0.000000 0.000000 0.000000 0.000000 0.000000 0.000000 -0.288009 -0.138385 -15.435047 -0.528739 0.632521 0.012018 0.673869 -12.109734 2.661235 0.000000 0.000000 0.000000 1.282537 1.668432 -15.031659 -1.049047 -2.151877 -0.444064 12.055040 3.058429 -0.535838 0.000000 0.000000 0.000000
